<?xml version="1.0" encoding="utf-8"?>
<!-- Generator: Adobe Illustrator 26.2.1, SVG Export Plug-In . SVG Version: 6.00 Build 0)  -->
<svg version="1.1" id="Group_805" xmlns="http://www.w3.org/2000/svg" xmlns:xlink="http://www.w3.org/1999/xlink" x="0px" y="0px" viewBox="0 0 369.5 67.2" style="enable-background:new 0 0 369.5 67.2;" xml:space="preserve">
	<style type="text/css">
	.st0{clip-path:url(#SVGID_00000084499246685778113730000005394386986623376315_);fill:#14C9C0;}
	.st1{clip-path:url(#SVGID_00000084499246685778113730000005394386986623376315_);fill:#161615;}
</style>
	<g>
		<defs>
			<rect id="SVGID_1_" width="369.5" height="67.2" />
		</defs>
		<clipPath id="SVGID_00000094609971218746498830000013677106623865950620_">
			<use xlink:href="#SVGID_1_" style="overflow:visible;" />
		</clipPath>
		<path id="Path_549" style="clip-path:url(#SVGID_00000094609971218746498830000013677106623865950620_);fill:#14C9C0;" d="
		M14.4,22.4l6.1-0.5c-0.3-2.3-1.7-4.4-3.7-5.6c-2-1.2-4.4-1.8-6.8-1.6c-2.4,0-4.6,0.8-6.5,2.2c-1.9,1.4-3,3.6-2.9,5.9
		c-0.1,2.2,1,4.3,2.9,5.5c2,1.2,4.2,2.1,6.5,2.7c3.4,1.1,5.1,2.1,5.1,3.2c0,1-0.5,1.9-1.4,2.4c-0.9,0.6-1.9,0.9-3,0.8
		c-1.1,0.1-2.1-0.2-3.1-0.7c-0.9-0.4-1.4-1.3-1.5-2.3L0,34.7c0.1,2.4,1.5,4.6,3.6,5.8c2.2,1.3,4.7,2,7.3,1.9c2.5,0,5-0.7,7.1-2.1
		c2-1.3,3.2-3.6,3.2-6c0-2.1-1-4.1-2.8-5.2c-2-1.1-4-2-6.2-2.6c-1.3-0.4-2.5-0.9-3.8-1.4c-1.1-0.6-1.7-1.4-1.7-2.2
		c0-0.9,0.4-1.8,1.1-2.4c0.7-0.6,1.6-0.9,2.5-0.8c0.9-0.1,1.8,0.2,2.6,0.6C13.8,20.7,14.3,21.5,14.4,22.4 M44.7,34.3
		c-3.2,3-8.1,2.9-11.2-0.2c-3.1-3.1-3.2-8.2,0-11.4c0,0,0,0,0,0c3.1-3.1,8.1-3.2,11.2-0.2l3.9-4.2c-1.3-1.2-2.7-2.1-4.4-2.8
		c-1.6-0.6-3.3-0.9-5-0.9c-7.6,0-13.8,6.2-13.8,13.8c0,7.6,6.2,13.8,13.8,13.8c1.7,0,3.4-0.3,5-0.9c1.6-0.6,3.1-1.6,4.4-2.8
		L44.7,34.3z M124.6,20.5h7.8v-5.4h-7.8V0l-6.1,1.2v40.4h6.1L124.6,20.5z" />
		<path id="Path_550" style="clip-path:url(#SVGID_00000094609971218746498830000013677106623865950620_);fill:#14C9C0;" d="
		M143.7,19.2L143.7,19.2l0-4.2l-6.1,1.2v3.5h0v21.9h6.1V19.2z" />
		<path id="Path_551" style="clip-path:url(#SVGID_00000094609971218746498830000013677106623865950620_);fill:#14C9C0;" d="
		M243.6,19.2L243.6,19.2l0-4.1l-6.1,1.2v3.5h0v21.9h6.1L243.6,19.2z" />
		<path id="Path_552" style="clip-path:url(#SVGID_00000094609971218746498830000013677106623865950620_);fill:#14C9C0;" d="
		M110.7,29V15.1h0V15l-6.1,1.2v3.5h0v9.6c0,4-3.2,7.2-7.2,7.2c-4,0-7.2-3.2-7.2-7.2v-1.1l-6.1,1.2c0.3,7.3,6.4,13.1,13.7,12.8
		C105.1,42,110.7,36.1,110.7,29 M84.2,19.8l6.1-1.2v-3.5l0,0V15l-6.1,1.2V19.8L84.2,19.8L84.2,19.8z" />
		<path id="Path_553" style="clip-path:url(#SVGID_00000094609971218746498830000013677106623865950620_);fill:#14C9C0;" d="
		M369.5,30.7c0.1-2.1-0.2-4.2-0.7-6.3c-0.7-2.1-1.8-4.1-3.3-5.7c-5.6-5.5-14.5-5.5-20,0c-2.6,2.5-4,6-4,9.6c-0.1,4.1,1.8,7.9,5,10.4
		c1.4,1.1,2.9,2,4.6,2.5c1.7,0.6,3.5,0.9,5.3,0.9c4.7,0.1,9.2-2,12-5.7l-4.8-3.1c-1.1,1.4-2.6,2.4-4.3,3c-1.6,0.6-3.3,0.7-5,0.5
		c-1.6-0.2-3.2-0.9-4.5-1.9c-1.3-1.1-2.3-2.5-2.7-4.2L369.5,30.7z M363.3,25.8h-16c0.5-1.7,1.6-3.1,3-4.1c1.4-1.1,3.2-1.7,5-1.7
		c1.8,0,3.5,0.6,4.9,1.6C361.7,22.6,362.8,24.1,363.3,25.8 M323.8,34.1c-3.1-3.1-3.2-8.2,0-11.4c0,0,0,0,0,0
		c3.1-3.1,8.1-3.2,11.2-0.2l3.9-4.2c-1.3-1.2-2.7-2.1-4.4-2.8c-1.6-0.6-3.3-0.9-5-0.9c-7.6,0-13.8,6.2-13.8,13.8c0,0,0,0,0,0
		c0,7.6,6.2,13.8,13.8,13.8c1.7,0,3.4-0.3,5-0.9c1.6-0.6,3.1-1.6,4.4-2.8l-3.9-4.2C331.9,37.3,326.9,37.2,323.8,34.1 M303.9,41.6
		h6.1v-14c0.1-2.8-0.7-5.6-2.2-7.9c-1.3-2-3.2-3.5-5.4-4.3c-2.1-0.9-4.4-1.1-6.7-0.7c-2.3,0.3-4.4,1.3-6.1,2.9V15l-6.1,1.2v0.4h0v25
		h6.1v-14c-0.1-2,0.8-3.9,2.3-5.3c2.8-2.3,7-2.3,9.8,0c1.5,1.3,2.4,3.3,2.3,5.3L303.9,41.6z M255.4,30.7h22.3
		c0.1-2.1-0.2-4.2-0.7-6.3c-0.7-2.1-1.8-4.1-3.3-5.7c-5.6-5.5-14.5-5.5-20,0c-2.6,2.5-4,6-4,9.6c-0.1,4.1,1.8,7.9,5,10.4
		c1.4,1.1,2.9,2,4.6,2.5c1.7,0.6,3.5,0.9,5.3,0.9c4.7,0.1,9.2-2,12-5.7l-4.8-3.1c-1.1,1.4-2.6,2.4-4.3,3c-1.6,0.6-3.3,0.7-5,0.5
		c-1.6-0.2-3.2-0.9-4.5-1.9C256.8,33.8,255.8,32.4,255.4,30.7 M255.6,25.8c0.5-1.7,1.6-3.1,3-4.1c1.4-1.1,3.2-1.7,5-1.7
		c1.8,0,3.5,0.6,4.9,1.6c1.5,1,2.6,2.4,3,4.2H255.6z M217.1,34.1c-3.1-3.1-3.2-8.2,0-11.4c0,0,0,0,0,0c3.1-3.1,8.1-3.2,11.2-0.2
		l3.9-4.2c-1.3-1.2-2.7-2.1-4.4-2.8c-1.6-0.6-3.3-0.9-5-0.9c-7.6,0-13.8,6.2-13.8,13.8c0,7.6,6.2,13.8,13.8,13.8
		c1.7,0,3.4-0.3,5-0.9c1.6-0.6,3.1-1.6,4.4-2.8l-3.9-4.2C225.2,37.3,220.2,37.2,217.1,34.1 M190.4,22.8c0-0.9,0.4-1.8,1.1-2.4
		c0.7-0.6,1.6-0.9,2.5-0.8c0.9-0.1,1.8,0.2,2.6,0.6c0.8,0.5,1.3,1.3,1.5,2.2l6.1-0.5c-0.3-2.3-1.7-4.4-3.7-5.6
		c-2-1.2-4.4-1.8-6.8-1.6c-2.4,0-4.6,0.8-6.5,2.2c-1.9,1.4-3,3.6-2.9,5.9c-0.1,2.2,1,4.3,2.9,5.5c2,1.2,4.2,2.1,6.5,2.7
		c3.4,1.1,5.1,2.1,5.1,3.2c0,1-0.5,1.9-1.4,2.4c-0.9,0.6-1.9,0.9-3,0.8c-1.1,0.1-2.1-0.2-3.1-0.7c-0.9-0.4-1.4-1.3-1.5-2.3l-6.1,0.2
		c0.1,2.4,1.5,4.6,3.6,5.8c2.2,1.3,4.7,2,7.3,1.9c2.5,0,5-0.7,7.1-2.1c2-1.3,3.2-3.6,3.2-6c0-2.1-1-4.1-2.8-5.2c-2-1.1-4-2-6.2-2.6
		c-1.3-0.4-2.5-0.9-3.8-1.4C191,24.4,190.4,23.6,190.4,22.8 M172,41.7h6.1v-14c0.1-2.8-0.7-5.6-2.2-7.9c-1.3-2-3.2-3.5-5.4-4.3
		c-2.1-0.9-4.4-1.1-6.7-0.7c-2.3,0.3-4.4,1.3-6.1,2.9V15l-6.1,1.2v0.1h0v25.3h6.1v-14c-0.1-2,0.8-3.9,2.3-5.3c2.8-2.3,7-2.3,9.8,0
		c1.5,1.3,2.4,3.3,2.3,5.3L172,41.7z" />
		<path id="Path_554" style="clip-path:url(#SVGID_00000094609971218746498830000013677106623865950620_);fill:#161615;" d="
		M94.5,25.3l-1-5.2l-14.1,2.8l0.3,1.4l-1.5,0.3c-0.6-2.3-1.9-4.3-3.5-5.9c-5.4-5.4-14.1-5.4-19.5,0c-2.6,2.6-4.1,6.1-4.1,9.8
		c0,7.6,6.1,13.8,13.7,13.8c3.7,0,7.2-1.5,9.8-4.1c2.6-2.5,4.1-6.1,4.1-9.7c0-0.5,0-1-0.1-1.6l1.5-0.3l0.3,1.5L94.5,25.3z
		 M72.4,28.4c0.1,1.9-0.6,3.8-1.9,5.3c-3,3.1-8.1,3.2-11.2,0.2c-0.1-0.1-0.1-0.1-0.2-0.2c-1.3-1.5-1.9-3.3-1.9-5.3
		c-0.1-1.9,0.6-3.8,1.9-5.3c1.5-1.6,3.5-2.5,5.7-2.4c2.1-0.1,4.2,0.8,5.6,2.4C71.8,24.6,72.4,26.5,72.4,28.4" />
		<path id="Path_555" style="clip-path:url(#SVGID_00000094609971218746498830000013677106623865950620_);fill:#161615;" d="
		M71.2,64.6h-4L66.4,67h-1.8l3.9-10.2h1.6L73.9,67h-1.9L71.2,64.6z M67.8,63.2h3L69.2,59L67.8,63.2z" />

		<rect id="Rectangle_1378" x="78.1" y="56.8" style="clip-path:url(#SVGID_00000094609971218746498830000013677106623865950620_);fill:#161615;" width="1.8" height="10.2" />

		<rect id="Rectangle_1379" x="84.4" y="62" style="clip-path:url(#SVGID_00000094609971218746498830000013677106623865950620_);fill:#161615;" width="3.7" height="1.4" />
		<path id="Path_556" style="clip-path:url(#SVGID_00000094609971218746498830000013677106623865950620_);fill:#161615;" d="M92.5,67
		V56.8H96c0.9-0.1,1.9,0.2,2.6,0.7c0.6,0.5,1,1.3,0.9,2.1c0,0.5-0.1,0.9-0.4,1.3c-0.3,0.4-0.7,0.7-1.1,0.9c0.5,0.1,1,0.4,1.3,0.8
		c0.3,0.4,0.5,1,0.5,1.5c0.1,0.8-0.3,1.7-0.9,2.2c-0.8,0.6-1.7,0.8-2.6,0.8L92.5,67z M94.3,61.1H96c0.5,0,0.9-0.1,1.3-0.4
		c0.3-0.3,0.5-0.7,0.5-1.1c0-0.4-0.1-0.8-0.4-1.1c-0.4-0.3-0.9-0.4-1.3-0.3h-1.7V61.1z M94.3,62.4v3.2h2c0.5,0,0.9-0.1,1.3-0.4
		c0.6-0.6,0.6-1.7,0-2.3c-0.3-0.3-0.7-0.5-1.1-0.5L94.3,62.4z" />
		<path id="Path_557" style="clip-path:url(#SVGID_00000094609971218746498830000013677106623865950620_);fill:#161615;" d="
		M110.2,64.6h-4l-0.8,2.4h-1.9l3.9-10.2h1.6l3.9,10.2H111L110.2,64.6z M106.7,63.2h3l-1.5-4.2L106.7,63.2z" />
		<path id="Path_558" style="clip-path:url(#SVGID_00000094609971218746498830000013677106623865950620_);fill:#161615;" d="
		M122.3,64.4c0-0.4-0.2-0.8-0.5-1c-0.5-0.3-1.1-0.6-1.7-0.7c-0.7-0.2-1.3-0.5-2-0.8c-0.9-0.4-1.4-1.3-1.4-2.3c0-0.8,0.4-1.6,1-2
		c0.8-0.6,1.7-0.8,2.6-0.8c0.7,0,1.3,0.1,1.9,0.4c0.5,0.2,1,0.6,1.3,1.1c0.3,0.5,0.5,1,0.5,1.6h-1.8c0-0.5-0.2-0.9-0.5-1.3
		c-0.4-0.3-0.9-0.5-1.4-0.5c-0.5,0-1,0.1-1.4,0.4c-0.3,0.2-0.5,0.6-0.5,1c0,0.4,0.2,0.7,0.5,0.9c0.5,0.3,1.1,0.6,1.7,0.7
		c0.7,0.2,1.3,0.5,1.9,0.8c0.4,0.3,0.8,0.6,1.1,1c0.2,0.4,0.3,0.9,0.3,1.4c0,0.8-0.3,1.6-1,2c-0.8,0.5-1.7,0.8-2.7,0.8
		c-0.7,0-1.4-0.1-2-0.4c-0.6-0.2-1.1-0.6-1.4-1.1c-0.3-0.5-0.5-1.1-0.5-1.7h1.8c0,0.5,0.2,1,0.6,1.3c0.5,0.3,1.1,0.5,1.7,0.5
		c0.5,0,1-0.1,1.4-0.4C122.1,65.1,122.3,64.8,122.3,64.4" />
		<path id="Path_559" style="clip-path:url(#SVGID_00000094609971218746498830000013677106623865950620_);fill:#161615;" d="
		M134.4,62.5h-4.2v3.1h4.9V67h-6.7V56.8h6.6v1.4h-4.9v2.8h4.2L134.4,62.5z" />
		<path id="Path_560" style="clip-path:url(#SVGID_00000094609971218746498830000013677106623865950620_);fill:#161615;" d="
		M139.5,67V56.8h3c0.8,0,1.7,0.2,2.4,0.6c0.7,0.4,1.3,1,1.6,1.7c0.4,0.8,0.6,1.7,0.6,2.5v0.5c0,0.9-0.2,1.8-0.6,2.6
		c-0.4,0.7-0.9,1.3-1.6,1.7c-0.8,0.4-1.6,0.6-2.5,0.6L139.5,67z M141.3,58.2v7.4h1.2c0.8,0.1,1.6-0.3,2.1-0.9
		c0.5-0.7,0.8-1.6,0.8-2.5v-0.6c0.1-0.9-0.2-1.8-0.7-2.5c-0.5-0.6-1.3-0.9-2.1-0.9L141.3,58.2z" />
		<path id="Path_561" style="clip-path:url(#SVGID_00000094609971218746498830000013677106623865950620_);fill:#161615;" d="
		M165.2,58.2H162V67h-1.8v-8.8h-3.2v-1.4h8.1V58.2z" />
		<path id="Path_562" style="clip-path:url(#SVGID_00000094609971218746498830000013677106623865950620_);fill:#161615;" d="
		M175.4,62.5h-4.2v3.1h4.9V67h-6.7V56.8h6.6v1.4h-4.9v2.8h4.2L175.4,62.5z" />
		<path id="Path_563" style="clip-path:url(#SVGID_00000094609971218746498830000013677106623865950620_);fill:#161615;" d="
		M188.2,63.7c0,1-0.5,1.9-1.2,2.6c-0.8,0.6-1.8,1-2.8,0.9c-0.8,0-1.5-0.2-2.2-0.6c-0.6-0.4-1.1-1-1.4-1.6c-0.4-0.8-0.5-1.6-0.5-2.5
		v-1c0-0.9,0.2-1.7,0.5-2.6c0.3-0.7,0.8-1.3,1.5-1.7c0.7-0.4,1.4-0.6,2.2-0.6c1,0,2,0.3,2.7,0.9c0.7,0.7,1.2,1.6,1.2,2.6h-1.8
		c0-0.6-0.2-1.2-0.6-1.6c-0.4-0.4-1-0.5-1.5-0.5c-0.7,0-1.4,0.3-1.8,0.8c-0.5,0.7-0.7,1.6-0.6,2.5v0.9c-0.1,0.9,0.2,1.8,0.6,2.5
		c0.4,0.6,1,0.9,1.7,0.9c0.6,0,1.1-0.1,1.6-0.5c0.4-0.4,0.6-1,0.7-1.6L188.2,63.7z" />
		<path id="Path_564" style="clip-path:url(#SVGID_00000094609971218746498830000013677106623865950620_);fill:#161615;" d="
		M200.8,67H199v-4.5h-4.6V67h-1.8V56.8h1.8v4.3h4.6v-4.3h1.8L200.8,67z" />
		<path id="Path_565" style="clip-path:url(#SVGID_00000094609971218746498830000013677106623865950620_);fill:#161615;" d="
		M219.2,58.2H216V67h-1.8v-8.8h-3.2v-1.4h8.1V58.2z" />
		<path id="Path_566" style="clip-path:url(#SVGID_00000094609971218746498830000013677106623865950620_);fill:#161615;" d="
		M227.2,63.1h-2V67h-1.8V56.8h3.6c1-0.1,1.9,0.2,2.7,0.8c0.7,0.6,1,1.4,1,2.3c0,0.6-0.2,1.2-0.5,1.7c-0.4,0.5-0.8,0.8-1.4,1.1
		l2.3,4.3V67h-1.9L227.2,63.1z M225.2,61.7h1.8c0.5,0,1-0.1,1.4-0.5c0.3-0.3,0.5-0.8,0.5-1.2c0-0.5-0.1-0.9-0.5-1.3
		c-0.4-0.3-0.9-0.5-1.4-0.5h-1.9L225.2,61.7z" />
		<path id="Path_567" style="clip-path:url(#SVGID_00000094609971218746498830000013677106623865950620_);fill:#161615;" d="
		M241,64.6h-4l-0.8,2.4h-1.8l3.9-10.2h1.6l3.9,10.2h-1.9L241,64.6z M237.6,63.2h3L239,59L237.6,63.2z" />
		<path id="Path_568" style="clip-path:url(#SVGID_00000094609971218746498830000013677106623865950620_);fill:#161615;" d="
		M255.9,67h-1.8l-4.6-7.3V67h-1.8V56.8h1.8l4.6,7.3v-7.3h1.8L255.9,67z" />
		<path id="Path_569" style="clip-path:url(#SVGID_00000094609971218746498830000013677106623865950620_);fill:#161615;" d="
		M266.2,64.4c0-0.4-0.2-0.8-0.5-1c-0.5-0.3-1.1-0.6-1.7-0.7c-0.7-0.2-1.3-0.5-2-0.8c-0.9-0.4-1.4-1.3-1.4-2.3c0-0.8,0.4-1.6,1-2
		c0.8-0.6,1.7-0.8,2.6-0.8c0.7,0,1.3,0.1,1.9,0.4c0.5,0.2,1,0.6,1.3,1.1c0.3,0.5,0.5,1,0.5,1.6h-1.8c0-0.5-0.2-0.9-0.5-1.3
		c-0.4-0.3-0.9-0.5-1.4-0.5c-0.5,0-1,0.1-1.4,0.4c-0.3,0.2-0.5,0.6-0.5,1c0,0.4,0.2,0.7,0.5,0.9c0.5,0.3,1.1,0.6,1.7,0.7
		c0.7,0.2,1.3,0.5,1.9,0.8c0.4,0.3,0.8,0.6,1.1,1c0.2,0.4,0.3,0.9,0.3,1.4c0,0.8-0.3,1.6-1,2c-0.8,0.5-1.7,0.8-2.7,0.8
		c-0.7,0-1.4-0.1-2-0.4c-0.6-0.2-1.1-0.6-1.4-1.1c-0.3-0.5-0.5-1.1-0.5-1.7h1.8c0,0.5,0.2,1,0.6,1.3c0.5,0.3,1.1,0.5,1.7,0.5
		c0.5,0,1-0.1,1.4-0.4C266,65.1,266.2,64.8,266.2,64.4" />
		<path id="Path_570" style="clip-path:url(#SVGID_00000094609971218746498830000013677106623865950620_);fill:#161615;" d="
		M278.3,62.7h-4.1V67h-1.8V56.8h6.5v1.4h-4.7v3h4.1L278.3,62.7z" />
		<path id="Path_571" style="clip-path:url(#SVGID_00000094609971218746498830000013677106623865950620_);fill:#161615;" d="
		M289.2,62.5H285v3.1h4.9V67h-6.7V56.8h6.6v1.4H285v2.8h4.2L289.2,62.5z" />
		<path id="Path_572" style="clip-path:url(#SVGID_00000094609971218746498830000013677106623865950620_);fill:#161615;" d="
		M298,63.1h-2V67h-1.8V56.8h3.6c1-0.1,1.9,0.2,2.7,0.8c0.7,0.6,1,1.4,1,2.3c0,0.6-0.2,1.2-0.5,1.7c-0.4,0.5-0.8,0.8-1.4,1.1l2.3,4.3
		V67H300L298,63.1z M296,61.7h1.8c0.5,0,1-0.1,1.4-0.5c0.3-0.3,0.5-0.8,0.5-1.2c0-0.5-0.1-0.9-0.5-1.3c-0.4-0.3-0.9-0.5-1.4-0.5H296
		L296,61.7z" />
	</g>
</svg>